<svg width="126" height="116" viewBox="0 0 126 116" fill="none" xmlns="http://www.w3.org/2000/svg">
<path opacity="0.6" fill-rule="evenodd" clip-rule="evenodd" d="M15.75 11H110.25C111.642 11 112.978 11.5531 113.962 12.5377C114.947 13.5223 115.5 14.8576 115.5 16.25V21.5H10.5V16.25C10.5 14.8576 11.0531 13.5223 12.0377 12.5377C13.0223 11.5531 14.3576 11 15.75 11Z" fill="#00102E"/>
<path opacity="0.3" fill-rule="evenodd" clip-rule="evenodd" d="M26.25 0.5H99.75C101.142 0.5 102.478 1.05312 103.462 2.03769C104.447 3.02226 105 4.35761 105 5.75V11H21V5.75C21 4.35761 21.5531 3.02226 22.5377 2.03769C23.5223 1.05312 24.8576 0.5 26.25 0.5Z" fill="#00102E"/>
<path fill-rule="evenodd" clip-rule="evenodd" d="M5.25 21.5H120.75C122.142 21.5 123.478 22.0531 124.462 23.0377C125.447 24.0223 126 25.3576 126 26.75V105.5C126 106.892 125.447 108.228 124.462 109.212C123.478 110.197 122.142 110.75 120.75 110.75H5.25C3.85761 110.75 2.52226 110.197 1.53769 109.212C0.553123 108.228 0 106.892 0 105.5V26.75C0 25.3576 0.553123 24.0223 1.53769 23.0377C2.52226 22.0531 3.85761 21.5 5.25 21.5ZM5.25 32V47.75H21V32H5.25ZM5.25 58.25V74H21V58.25H5.25ZM5.25 84.5V100.25H21V84.5H5.25ZM105 32V47.75H120.75V32H105ZM105 58.25V74H120.75V58.25H105ZM105 84.5V100.25H120.75V84.5H105Z" fill="#00102E"/>
<path d="M76.2188 75.6094C80.9688 75.6094 84.9062 75.2031 88.0312 74.3906L88.2656 74.7188L84.8438 85.5938H76.2188V102H64.2656V85.5938H35.3906L35.2031 82.125L61.125 39.75L76.2188 39.6562V75.6094ZM64.2656 75.6094V53.3906L51.4688 75.6094H64.2656Z" fill="white"/>
<path d="M64.944 53.712V73.872H68.832V75.888H64.944V84H61.392V75.888H49.632V74.4L64.08 53.376L64.944 53.712ZM52.416 73.872H61.392V60.816L52.416 73.872Z" fill="#173D85"/>
</svg>
