<svg width="16" height="16" viewBox="0 0 16 16" fill="none" xmlns="http://www.w3.org/2000/svg">
<path d="M2.92999 8.00093C2.93027 8.27706 3.15435 8.50066 3.43049 8.50039C3.70663 8.50013 3.93027 8.27606 3.92999 7.99993L2.92999 8.00093ZM6.22332 3.68906L6.02638 3.22949L6.02575 3.22975L6.22332 3.68906ZM8.83731 3.4224L8.93898 2.93284L8.93744 2.93252L8.83731 3.4224ZM11.8094 6.80519C11.8857 7.07059 12.1627 7.22386 12.4281 7.1476C12.6935 7.07133 12.8468 6.79433 12.7705 6.52894L11.8094 6.80519ZM11.806 6.5413C11.7366 6.8086 11.897 7.08153 12.1642 7.15099C12.4315 7.22046 12.7044 7.06006 12.7739 6.7928L11.806 6.5413ZM13.2472 4.9715C13.3167 4.70423 13.1564 4.43126 12.8891 4.36181C12.6218 4.29235 12.3488 4.4527 12.2794 4.71997L13.2472 4.9715ZM12.1568 7.149C12.423 7.22253 12.6984 7.0664 12.7719 6.80026C12.8455 6.53407 12.6893 6.25868 12.4232 6.18513L12.1568 7.149ZM10.6572 5.69713C10.391 5.62358 10.1156 5.77972 10.042 6.04589C9.96851 6.31206 10.1246 6.58746 10.3908 6.661L10.6572 5.69713ZM13.2633 7.99993C13.263 7.72373 13.039 7.50013 12.7628 7.50039C12.4867 7.50066 12.263 7.72473 12.2633 8.00093L13.2633 7.99993ZM7.35598 12.5784L7.25431 13.0679L7.25591 13.0683L7.35598 12.5784ZM4.38387 9.19559C4.30758 8.93019 4.0306 8.77693 3.7652 8.85319C3.4998 8.92946 3.3465 9.20646 3.42278 9.47186L4.38387 9.19559ZM4.38725 9.45946C4.45671 9.19226 4.29636 8.91926 4.02909 8.84979C3.76182 8.78033 3.48885 8.94073 3.4194 9.20799L4.38725 9.45946ZM2.94607 11.0293C2.87661 11.2966 3.03696 11.5695 3.30423 11.639C3.57149 11.7085 3.84446 11.5481 3.91392 11.2808L2.94607 11.0293ZM4.0365 8.85179C3.77033 8.77826 3.49494 8.93439 3.42139 9.20053C3.34784 9.46673 3.50398 9.74213 3.77015 9.81566L4.0365 8.85179ZM5.53615 10.3037C5.80232 10.3772 6.07771 10.2211 6.15126 9.95493C6.22481 9.68873 6.06867 9.41333 5.8025 9.33979L5.53615 10.3037ZM3.92999 7.99993C3.92917 7.17659 4.16626 6.3706 4.61275 5.67889L3.77257 5.13658C3.22157 5.99021 2.92898 6.98486 2.92999 8.00093L3.92999 7.99993ZM4.61275 5.67889C5.04982 5.00041 5.67951 4.46729 6.4209 4.14837L6.02575 3.22975C5.10166 3.62726 4.31734 4.2909 3.77257 5.13658L4.61275 5.67889ZM6.42028 4.14864C7.15051 3.8357 7.95884 3.75324 8.73724 3.91228L8.93744 2.93252C7.95944 2.7327 6.94384 2.83632 6.02638 3.22949L6.42028 4.14864ZM8.73564 3.91195C9.52018 4.07488 10.2372 4.47059 10.7934 5.04742L11.5133 4.35337C10.8176 3.63173 9.92044 3.13668 8.93898 2.93284L8.73564 3.91195ZM10.7934 5.04742C11.2706 5.54131 11.6197 6.14514 11.8094 6.80519L12.7705 6.52894C12.5356 5.71166 12.1042 4.9649 11.5133 4.35337L10.7934 5.04742ZM12.7739 6.7928L13.2472 4.9715L12.2794 4.71997L11.806 6.5413L12.7739 6.7928ZM12.4232 6.18513L10.6572 5.69713L10.3908 6.661L12.1568 7.149L12.4232 6.18513ZM12.2633 8.00093C12.2642 8.82419 12.027 9.63019 11.5806 10.3219L12.4208 10.8642C12.9718 10.0106 13.2643 9.01593 13.2633 7.99993L12.2633 8.00093ZM11.5806 10.3219C11.1435 11.0005 10.5138 11.5335 9.77244 11.8524L10.167 12.7713C11.091 12.3738 11.876 11.7099 12.4208 10.8642L11.5806 10.3219ZM9.77244 11.8524C9.04224 12.1653 8.23444 12.2475 7.45611 12.0885L7.25591 13.0683C8.23384 13.2681 9.24951 13.1645 10.167 12.7713L9.77244 11.8524ZM7.45764 12.0889C6.67317 11.9259 5.95605 11.5302 5.39996 10.9534L4.68003 11.6474C5.37573 12.3691 6.27288 12.8641 7.25431 13.0679L7.45764 12.0889ZM5.39996 10.9534C4.92273 10.4595 4.57359 9.85566 4.38387 9.19559L3.42278 9.47186C3.6577 10.2891 4.08914 11.0359 4.68003 11.6474L5.39996 10.9534ZM3.4194 9.20799L2.94607 11.0293L3.91392 11.2808L4.38725 9.45946L3.4194 9.20799ZM3.77015 9.81566L5.53615 10.3037L5.8025 9.33979L4.0365 8.85179L3.77015 9.81566Z" fill="#7C3AED"/>
</svg>
