<svg width="18" height="18" viewBox="0 0 18 18" fill="none" xmlns="http://www.w3.org/2000/svg">
<path d="M7.56 1.07999C4.1836 1.07999 1.44 3.82358 1.44 7.19999C1.44 10.5764 4.1836 13.32 7.56 13.32C8.89594 13.32 10.1306 12.8897 11.1375 12.1612L15.8738 16.8862L16.8863 15.8737L12.2063 11.1825C13.1259 10.1109 13.68 8.72014 13.68 7.19999C13.68 3.82358 10.9364 1.07999 7.56 1.07999ZM7.56 1.79999C10.5469 1.79999 12.96 4.21311 12.96 7.19999C12.96 10.1869 10.5469 12.6 7.56 12.6C4.57313 12.6 2.16 10.1869 2.16 7.19999C2.16 4.21311 4.57313 1.79999 7.56 1.79999Z" fill="#AAAAAA"/>
</svg>
